<?xml version="1.0" standalone="no"?>
<!DOCTYPE svg PUBLIC "-//W3C//DTD SVG 20010904//EN"
 "http://www.w3.org/TR/2001/REC-SVG-20010904/DTD/svg10.dtd">
<svg version="1.0" xmlns="http://www.w3.org/2000/svg"
 width="260.000000pt" height="260.000000pt" viewBox="0 0 260.000000 260.000000"
 preserveAspectRatio="xMidYMid meet">
<metadata>
Created by potrace 1.11, written by Peter Selinger 2001-2013
</metadata>
<g transform="translate(0.000000,260.000000) scale(0.100000,-0.100000)"
fill="#000000" stroke="none">
<path d="M521 2207 c-68 -23 -128 -70 -170 -133 -29 -44 -68 -136 -77 -179 -2
-11 -6 -31 -9 -45 -2 -14 -8 -41 -11 -60 -12 -66 -10 -334 3 -425 7 -49 15
-102 17 -117 2 -14 -3 -59 -11 -100 -25 -124 -24 -392 2 -537 12 -68 53 -170
89 -225 68 -100 158 -148 281 -151 81 -1 136 12 365 90 107 37 200 68 205 69
6 1 29 8 51 15 41 13 49 11 300 -72 143 -48 275 -89 294 -93 171 -31 300 18
387 146 31 46 88 189 79 198 -3 2 -1 12 3 21 33 61 33 419 0 569 -6 31 -8 69
-3 90 8 40 9 46 20 142 15 117 9 317 -11 435 -13 73 -49 168 -84 222 -56 86
-104 122 -196 149 -80 23 -140 15 -315 -42 -80 -25 -146 -46 -148 -45 -1 1
-15 -5 -31 -13 -15 -8 -39 -17 -52 -20 -13 -3 -65 -19 -115 -37 l-91 -31 -254
86 c-369 124 -406 131 -518 93z m299 -193 c47 -15 90 -29 95 -30 35 -9 115
-40 115 -44 0 -4 -165 -60 -220 -76 -3 0 -21 -7 -40 -15 -19 -7 -38 -12 -42
-11 -5 1 -8 -3 -8 -8 0 -5 -6 -10 -12 -10 -7 0 -47 -23 -88 -51 -78 -53 -166
-147 -211 -225 -14 -24 -29 -48 -34 -52 -8 -8 0 227 9 267 29 126 72 205 135
247 78 51 161 53 301 8z m1215 11 c44 -20 98 -73 122 -120 30 -56 53 -169 59
-287 3 -65 2 -118 -2 -118 -5 1 -25 27 -44 58 -45 73 -150 179 -224 227 -47
30 -179 87 -231 100 -5 1 -17 5 -25 8 -37 14 -95 30 -96 26 0 -2 -9 3 -19 11
-16 13 -3 19 141 67 176 58 242 63 319 28z m-865 -800 c0 -322 -2 -585 -5
-585 -6 0 -179 57 -205 67 -8 4 -17 7 -20 8 -3 0 -49 16 -102 34 -92 31 -183
81 -238 133 -75 68 -151 195 -183 304 -14 49 -14 55 8 117 54 154 163 286 293
351 39 20 72 34 72 31 0 -4 6 -3 13 2 16 10 338 121 355 122 9 1 12 -122 12
-584z m371 549 c57 -20 111 -38 119 -40 40 -10 170 -58 218 -81 116 -55 235
-199 287 -348 l23 -66 -28 -79 c-15 -43 -43 -105 -61 -137 -42 -74 -138 -172
-208 -213 -54 -31 -459 -175 -468 -166 -4 4 -7 1004 -4 1139 1 15 5 27 9 27 5
0 56 -16 113 -36z m-1030 -989 c65 -69 165 -141 242 -174 26 -11 95 -37 154
-57 60 -20 112 -38 117 -42 9 -5 -220 -86 -274 -97 -236 -48 -373 124 -379
473 l-1 87 40 -62 c22 -34 68 -92 101 -128z m1708 93 c-2 -51 -6 -109 -10
-128 -4 -19 -10 -53 -13 -74 -9 -53 -59 -154 -97 -194 -57 -60 -147 -85 -249
-69 -36 5 -290 90 -290 97 0 3 33 16 73 28 172 56 286 109 356 166 59 48 142
140 182 201 23 36 44 65 46 65 3 0 3 -42 2 -92z"/>
</g>
</svg>
